<?xml version="1.0" standalone="no"?>
<!DOCTYPE svg PUBLIC "-//W3C//DTD SVG 20010904//EN"
 "http://www.w3.org/TR/2001/REC-SVG-20010904/DTD/svg10.dtd">
<svg version="1.0" xmlns="http://www.w3.org/2000/svg"
 width="96.000000pt" height="96.000000pt" viewBox="0 0 96.000000 96.000000"
 preserveAspectRatio="xMidYMid meet">
<metadata>
Created by potrace 1.16, written by Peter Selinger 2001-2019
</metadata>
<g transform="translate(0.000000,96.000000) scale(0.100000,-0.100000)"
fill="red" stroke="none">
<path d="M240 680 c-19 -19 -20 -33 -20 -200 0 -167 1 -181 20 -200 27 -27 93
-27 120 0 19 19 20 33 20 200 0 167 -1 181 -20 200 -13 13 -33 20 -60 20 -27
0 -47 -7 -60 -20z m90 -49 c13 -26 13 -276 0 -302 -14 -25 -46 -25 -60 0 -5
11 -10 79 -10 151 0 137 8 170 40 170 11 0 24 -9 30 -19z"/>
<path d="M440 681 c-6 -12 -10 -94 -10 -198 0 -145 3 -183 16 -201 29 -42 67
-30 217 74 132 92 138 97 135 127 -3 28 -17 42 -137 124 -112 77 -141 93 -172
93 -28 0 -41 -5 -49 -19z m304 -202 c-6 -11 -243 -169 -253 -169 -12 0 -16
331 -5 343 8 7 263 -165 258 -174z"/>
</g>
</svg>
