<?xml version="1.0" standalone="no"?>
<!DOCTYPE svg PUBLIC "-//W3C//DTD SVG 20010904//EN"
 "http://www.w3.org/TR/2001/REC-SVG-20010904/DTD/svg10.dtd">
<svg version="1.0" xmlns="http://www.w3.org/2000/svg"
 width="128.000000pt" height="128.000000pt" viewBox="0 0 128.000000 128.000000"
 preserveAspectRatio="xMidYMid meet">
<metadata>
Created by potrace 1.16, written by Peter Selinger 2001-2019
</metadata>

<g transform="translate(0.000000,128.000000) scale(0.100000,-0.100000)"
fill="red" stroke="none" >
<path d="M132 824 c-107 -55 -121 -198 -26 -271 96 -73 238 -10 251 111 14
119 -120 214 -225 160z m123 -89 c50 -49 15 -135 -55 -135 -70 0 -105 86 -55
135 32 33 78 33 110 0z"/>
<path d="M1012 824 c-107 -55 -121 -198 -26 -271 96 -73 238 -10 251 111 14
119 -120 214 -225 160z m123 -89 c16 -15 25 -36 25 -55 0 -19 -9 -40 -25 -55
-49 -50 -135 -15 -135 55 0 19 9 40 25 55 15 16 36 25 55 25 19 0 40 -9 55
-25z"/>
<path d="M670 790 c0 -6 15 -24 33 -40 l32 -29 -167 -1 -168 0 0 -40 0 -40
168 0 167 -1 -32 -29 c-18 -16 -33 -34 -33 -40 0 -5 22 -10 48 -10 45 0 51 3
107 60 l59 60 -59 60 c-56 57 -62 60 -107 60 -26 0 -48 -5 -48 -10z"/>
</g>

</svg>
