<?xml version="1.0" standalone="no"?>
<!DOCTYPE svg PUBLIC "-//W3C//DTD SVG 20010904//EN"
 "http://www.w3.org/TR/2001/REC-SVG-20010904/DTD/svg10.dtd">
<svg version="1.0" xmlns="http://www.w3.org/2000/svg"
 width="225.000000pt" height="225.000000pt" viewBox="-3 0 225.000000 222.000000"
 preserveAspectRatio="xMidYMid meet" >
<metadata>
Created by potrace 1.16, written by Peter Selinger 2001-2019
</metadata>
<g transform="translate(0.000000,225.000000) scale(0.100000,-0.100000)"
fill="red" stroke="none" >

<path d="M965 2214 c-659 -102 -1083 -757 -899 -1391 56 -194 151 -350 300
-492 393 -376 991 -411 1421 -85 534 407 587 1182 114 1655 -188 188 -417 295
-685 319 -126 12 -140 11 -251 -6z m342 -189 c188 -40 326 -114 466 -252 108
-107 181 -226 233 -383 27 -81 29 -94 29 -265 0 -171 -2 -184 -29 -265 -124
-370 -422 -614 -793 -649 -180 -17 -326 10 -490 89 -284 138 -478 409 -513
719 -53 472 258 902 730 1007 78 17 285 17 367 -1z"/>
<path d="M1040 1659 c-14 -6 -36 -20 -48 -32 -45 -41 -52 -69 -52 -196 l0
-119 -134 -4 c-127 -3 -136 -4 -162 -28 -82 -76 -82 -214 0 -290 26 -23 36
-25 159 -30 l132 -5 3 -132 3 -133 37 -39 c72 -75 181 -80 255 -12 46 43 55
81 56 229 l1 92 131 0 131 0 38 38 c86 86 72 221 -29 289 -31 21 -46 23 -152
23 l-119 0 0 124 c0 111 -2 126 -23 157 -37 55 -81 79 -146 78 -31 0 -67 -5
-81 -10z"/>
</g>
</svg>
