<?xml version="1.0" standalone="no"?>
<!DOCTYPE svg PUBLIC "-//W3C//DTD SVG 20010904//EN"
 "http://www.w3.org/TR/2001/REC-SVG-20010904/DTD/svg10.dtd">
<svg version="1.0" xmlns="http://www.w3.org/2000/svg"
 width="100.000000pt" height="100.000000pt" viewBox="0 0 100.000000 100.000000"
 preserveAspectRatio="xMidYMid meet">
<metadata>
Created by potrace 1.16, written by Peter Selinger 2001-2019
</metadata>
<g transform="translate(0.000000,100.000000) scale(0.100000,-0.100000)"
fill="red" stroke="none">
<path d="M373 885 c-100 -31 -190 -112 -241 -215 -25 -50 -27 -65 -27 -170 0
-107 2 -119 29 -175 38 -77 114 -153 191 -191 56 -27 68 -29 175 -29 107 0
119 2 175 29 120 59 211 184 222 305 l6 61 -36 0 c-34 0 -36 -2 -42 -42 -10
-66 -49 -142 -95 -188 -127 -127 -333 -127 -460 0 -127 127 -127 333 0 460 64
64 138 94 230 94 80 0 162 -27 196 -65 17 -18 16 -19 -34 -19 l-52 0 0 -40 0
-40 104 0 c57 0 111 3 120 6 13 5 16 25 16 120 l0 114 -35 0 -35 0 0 -50 0
-50 -54 36 c-29 19 -75 42 -101 50 -59 17 -195 17 -252 -1z"/>
<path d="M414 667 c-2 -7 -3 -87 -2 -177 4 -207 5 -208 124 -89 46 46 84 91
84 99 0 21 -161 180 -183 180 -10 0 -20 -6 -23 -13z"/>
</g>
</svg>
