<?xml version="1.0" standalone="no"?>
<!DOCTYPE svg PUBLIC "-//W3C//DTD SVG 20010904//EN"
 "http://www.w3.org/TR/2001/REC-SVG-20010904/DTD/svg10.dtd">
<svg version="1.0" xmlns="http://www.w3.org/2000/svg"
 width="219.000000pt" height="230.000000pt" viewBox="0 0 219.000000 230.000000"
 preserveAspectRatio="xMidYMid meet">
<metadata>
Created by potrace 1.16, written by Peter Selinger 2001-2019
</metadata>
<g transform="translate(0.000000,230.000000) scale(0.100000,-0.100000)"
fill="red" stroke="none">
<path d="M965 2214 c-659 -102 -1083 -757 -899 -1391 56 -194 151 -350 300
-492 393 -376 991 -411 1421 -85 534 407 587 1182 114 1655 -188 188 -417 295
-685 319 -126 12 -140 11 -251 -6z m342 -189 c188 -40 326 -114 466 -252 108
-107 181 -226 233 -383 27 -81 29 -94 29 -265 0 -171 -2 -184 -29 -265 -124
-370 -422 -614 -793 -649 -180 -17 -326 10 -490 89 -284 138 -478 409 -513
719 -53 472 258 902 730 1007 78 17 285 17 367 -1z"/>
<path d="M540 1175 l0 -125 555 0 555 0 0 125 0 125 -555 0 -555 0 0 -125z"/>
</g>
</svg>
